<svg width="124" height="43" viewBox="0 0 124 43" fill="none" xmlns="http://www.w3.org/2000/svg">
<path d="M6.048 14.104V18.904H10.688V20.984H6.048V29.528C6.048 30.232 6.05867 30.8187 6.08 31.288C6.12267 31.7573 6.19733 32.1307 6.304 32.408C6.41067 32.6853 6.56 32.888 6.752 33.016C6.944 33.1227 7.18933 33.176 7.488 33.176C8.29867 33.1547 9.23733 32.856 10.304 32.28L11.072 34.232C10.368 34.7013 9.70667 35.0107 9.088 35.16C8.49067 35.3307 7.89333 35.416 7.296 35.416C5.888 35.416 4.896 35.0213 4.32 34.232C3.76533 33.4213 3.488 32.088 3.488 30.232V20.984H0.544V18.904H3.488V14.424L6.048 14.104ZM13.9923 21.496C13.9923 21.0053 13.9389 20.2373 13.8323 19.192L16.2003 18.872L16.4563 21.208H16.4883C16.8723 20.7173 17.2456 20.2907 17.6083 19.928C17.9709 19.5653 18.3443 19.256 18.7283 19C19.1336 18.7227 19.5176 18.584 19.8802 18.584C20.3709 18.5627 21.0536 18.616 21.9283 18.744L21.3523 21.208C20.6483 21.08 20.1576 21.0267 19.8802 21.048C19.5176 21.048 19.1336 21.2187 18.7283 21.56C18.3229 21.9013 17.9709 22.264 17.6723 22.648C17.2883 23.1173 16.9149 23.6507 16.5523 24.248V35H13.9923V21.496ZM33.4828 27.608C33.0561 27.6293 32.6508 27.6507 32.2668 27.672C31.8828 27.6933 31.4988 27.7253 31.1148 27.768C30.7521 27.7893 30.4214 27.8213 30.1228 27.864C28.5868 28.056 27.4988 28.3973 26.8588 28.888C26.2188 29.3573 25.8988 30.04 25.8988 30.936C25.8988 31.6827 26.1228 32.248 26.5708 32.632C27.0401 32.9947 27.6481 33.176 28.3948 33.176C29.4188 33.176 30.3254 33.0053 31.1148 32.664C31.9254 32.3013 32.7148 31.832 33.4828 31.256V27.608ZM33.4508 33.496C32.4481 34.072 31.5094 34.5413 30.6348 34.904C29.7814 35.2453 28.8534 35.416 27.8508 35.416C26.4214 35.416 25.2801 35.0747 24.4268 34.392C23.5948 33.688 23.1788 32.536 23.1788 30.936C23.1788 30.104 23.3921 29.3787 23.8188 28.76C24.2454 28.1413 24.8001 27.6293 25.4828 27.224C26.1868 26.7973 26.9761 26.4667 27.8508 26.232C28.7254 25.9973 29.6214 25.848 30.5388 25.784C30.9228 25.7413 31.4241 25.7093 32.0428 25.688C32.6614 25.6453 33.1414 25.6133 33.4828 25.592C33.4828 24.8453 33.4614 24.184 33.4188 23.608C33.3761 23.0107 33.2481 22.5093 33.0348 22.104C32.8214 21.6773 32.5014 21.3573 32.0748 21.144C31.6694 20.9307 31.0828 20.824 30.3148 20.824C29.6961 20.824 29.0988 20.8667 28.5228 20.952C27.9468 21.016 27.4348 21.0907 26.9868 21.176C26.4534 21.2827 25.9628 21.4 25.5148 21.528L25.0028 19.32C25.5361 19.192 26.1121 19.0747 26.7308 18.968C27.2641 18.8613 27.8828 18.776 28.5868 18.712C29.2908 18.6267 30.0481 18.584 30.8588 18.584C31.9468 18.584 32.8214 18.744 33.4828 19.064C34.1654 19.384 34.6881 19.8213 35.0508 20.376C35.4348 20.9093 35.6908 21.528 35.8188 22.232C35.9681 22.9147 36.0428 23.64 36.0428 24.408V32.088C36.0428 32.3867 36.0428 32.7067 36.0428 33.048C36.0641 33.368 36.0854 33.688 36.1068 34.008C36.1494 34.328 36.1921 34.6587 36.2348 35L33.7708 35.256L33.4508 33.496ZM40.586 22.104C40.6073 21.656 40.554 20.6853 40.426 19.192L42.794 18.872L43.146 20.92C43.786 20.4933 44.4153 20.12 45.034 19.8C45.674 19.48 46.3247 19.2027 46.986 18.968C47.6473 18.712 48.2873 18.584 48.906 18.584C49.7807 18.584 50.506 18.6907 51.082 18.904C51.6793 19.096 52.1593 19.4267 52.522 19.896C52.8847 20.3653 53.1407 20.984 53.29 21.752C53.4607 22.52 53.546 23.48 53.546 24.632V35H50.986V24.92C50.986 24.28 50.9753 23.7147 50.954 23.224C50.9327 22.712 50.8367 22.2853 50.666 21.944C50.5167 21.5813 50.2713 21.304 49.93 21.112C49.61 20.92 49.1513 20.824 48.554 20.824C47.9993 20.824 47.4127 20.952 46.794 21.208C46.1753 21.4427 45.5673 21.72 44.97 22.04C44.3727 22.36 43.7647 22.7333 43.146 23.16V35H40.586V22.104ZM70.662 36.536C70.662 37.3253 70.5767 38.0933 70.406 38.84C70.2353 39.5867 69.9047 40.248 69.414 40.824C68.9447 41.4213 68.2727 41.8907 67.398 42.232C66.5447 42.5947 65.414 42.776 64.006 42.776C63.11 42.7547 62.3313 42.7013 61.67 42.616C61.0087 42.5307 60.3793 42.4027 59.782 42.232C59.1847 42.0827 58.6407 41.9013 58.15 41.688L58.822 39.448C59.654 39.8107 60.4967 40.088 61.35 40.28C62.2247 40.472 63.0033 40.568 63.686 40.568C64.4327 40.568 65.0833 40.4933 65.638 40.344C66.1927 40.1947 66.6513 39.9387 67.014 39.576C67.398 39.2347 67.6753 38.776 67.846 38.2C68.038 37.624 68.134 36.9093 68.134 36.056V33.72C67.686 34.0187 67.2167 34.296 66.726 34.552C66.2567 34.7867 65.7447 34.9893 65.19 35.16C64.6567 35.3307 64.134 35.416 63.622 35.416C61.638 35.416 60.07 34.7227 58.918 33.336C57.766 31.928 57.19 29.8373 57.19 27.064C57.19 25.464 57.4353 24.1307 57.926 23.064C58.438 21.976 59.078 21.1013 59.846 20.44C60.614 19.7787 61.4567 19.3093 62.374 19.032C63.2913 18.7333 64.166 18.584 64.998 18.584C66.086 18.584 67.078 18.68 67.974 18.872C68.8913 19.0427 69.7873 19.1813 70.662 19.288V36.536ZM63.91 33.176C64.3793 33.176 64.8593 33.0907 65.35 32.92C65.8407 32.7493 66.31 32.5467 66.758 32.312C67.2273 32.0773 67.686 31.8 68.134 31.48V21.272C67.878 21.208 67.5793 21.1333 67.238 21.048C66.9393 21.0053 66.598 20.9627 66.214 20.92C65.83 20.856 65.4247 20.824 64.998 20.824C64.102 20.824 63.334 20.984 62.694 21.304C62.054 21.624 61.5207 22.0613 61.094 22.616C60.6887 23.1707 60.39 23.8213 60.198 24.568C60.006 25.3147 59.91 26.104 59.91 26.936C59.91 27.6827 59.9847 28.4293 60.134 29.176C60.3047 29.9227 60.5607 30.5947 60.902 31.192C61.2433 31.7893 61.6593 32.2693 62.15 32.632C62.6407 32.9947 63.2273 33.176 63.91 33.176ZM84.2328 27.608C83.8061 27.6293 83.4008 27.6507 83.0168 27.672C82.6328 27.6933 82.2488 27.7253 81.8648 27.768C81.5021 27.7893 81.1714 27.8213 80.8728 27.864C79.3368 28.056 78.2488 28.3973 77.6088 28.888C76.9688 29.3573 76.6488 30.04 76.6488 30.936C76.6488 31.6827 76.8728 32.248 77.3208 32.632C77.7901 32.9947 78.3981 33.176 79.1448 33.176C80.1688 33.176 81.0754 33.0053 81.8648 32.664C82.6754 32.3013 83.4648 31.832 84.2328 31.256V27.608ZM84.2008 33.496C83.1981 34.072 82.2594 34.5413 81.3848 34.904C80.5314 35.2453 79.6034 35.416 78.6008 35.416C77.1714 35.416 76.0301 35.0747 75.1768 34.392C74.3448 33.688 73.9288 32.536 73.9288 30.936C73.9288 30.104 74.1421 29.3787 74.5688 28.76C74.9954 28.1413 75.5501 27.6293 76.2328 27.224C76.9368 26.7973 77.7261 26.4667 78.6008 26.232C79.4754 25.9973 80.3714 25.848 81.2888 25.784C81.6728 25.7413 82.1741 25.7093 82.7928 25.688C83.4114 25.6453 83.8914 25.6133 84.2328 25.592C84.2328 24.8453 84.2114 24.184 84.1688 23.608C84.1261 23.0107 83.9981 22.5093 83.7848 22.104C83.5714 21.6773 83.2514 21.3573 82.8248 21.144C82.4194 20.9307 81.8328 20.824 81.0648 20.824C80.4461 20.824 79.8488 20.8667 79.2728 20.952C78.6968 21.016 78.1848 21.0907 77.7368 21.176C77.2034 21.2827 76.7128 21.4 76.2648 21.528L75.7528 19.32C76.2861 19.192 76.8621 19.0747 77.4808 18.968C78.0141 18.8613 78.6328 18.776 79.3368 18.712C80.0408 18.6267 80.7981 18.584 81.6088 18.584C82.6968 18.584 83.5714 18.744 84.2328 19.064C84.9154 19.384 85.4381 19.8213 85.8008 20.376C86.1848 20.9093 86.4408 21.528 86.5688 22.232C86.7181 22.9147 86.7928 23.64 86.7928 24.408V32.088C86.7928 32.3867 86.7928 32.7067 86.7928 33.048C86.8141 33.368 86.8354 33.688 86.8568 34.008C86.8994 34.328 86.9421 34.6587 86.9848 35L84.5208 35.256L84.2008 33.496ZM91.336 22.104C91.3573 21.656 91.304 20.6853 91.176 19.192L93.544 18.872L93.896 20.92C94.536 20.4933 95.1653 20.12 95.784 19.8C96.424 19.48 97.0747 19.2027 97.736 18.968C98.3973 18.712 99.0373 18.584 99.656 18.584C100.531 18.584 101.256 18.6907 101.832 18.904C102.429 19.096 102.909 19.4267 103.272 19.896C103.635 20.3653 103.891 20.984 104.04 21.752C104.211 22.52 104.296 23.48 104.296 24.632V35H101.736V24.92C101.736 24.28 101.725 23.7147 101.704 23.224C101.683 22.712 101.587 22.2853 101.416 21.944C101.267 21.5813 101.021 21.304 100.68 21.112C100.36 20.92 99.9013 20.824 99.304 20.824C98.7493 20.824 98.1627 20.952 97.544 21.208C96.9253 21.4427 96.3173 21.72 95.72 22.04C95.1227 22.36 94.5147 22.7333 93.896 23.16V35H91.336V22.104ZM108.804 11.032L111.364 10.744V20.92C112.004 20.4933 112.633 20.12 113.252 19.8C113.892 19.48 114.543 19.2027 115.204 18.968C115.865 18.712 116.505 18.584 117.124 18.584C117.999 18.584 118.724 18.6907 119.3 18.904C119.897 19.096 120.377 19.4267 120.74 19.896C121.103 20.3653 121.359 20.984 121.508 21.752C121.679 22.52 121.764 23.48 121.764 24.632V35H119.204V24.92C119.204 24.28 119.193 23.7147 119.172 23.224C119.151 22.712 119.055 22.2853 118.884 21.944C118.735 21.5813 118.489 21.304 118.148 21.112C117.828 20.92 117.369 20.824 116.772 20.824C116.217 20.824 115.62 20.952 114.98 21.208C114.34 21.4427 113.732 21.72 113.156 22.04C112.58 22.36 111.983 22.7333 111.364 23.16V35H108.804V11.032Z" fill="#505050"/>
<path d="M99.8574 10H97.5312V2.64063L95.2344 2.64062V1.5625L102.154 1.5625V2.64063L99.8574 2.64063V10ZM104.504 3.70703L103.848 10H102.412L103.848 1.5625L105.975 1.5625L107.949 8.00195L109.947 1.5625L112.074 1.5625L113.27 10L110.902 10L110.205 3.87109L108.559 10H106.432L104.504 3.70703Z" fill="#505050"/>
</svg>
